<svg xmlns="http://www.w3.org/2000/svg" viewBox="0 0 500 500"><g id="freepik--background-complete--inject-45"><path d="M87.59,374.75,74.47,375l-6.66.11c-2.23,0-4.47,0-6.7.05h-.44v-.45l-.06-11.19v-.5h.5l13.24.06c4.42,0,8.83.11,13.24.16h.28v.27c0,1.9-.09,3.78-.13,5.65Zm0,0-.14-5.66c0-1.86-.11-3.7-.13-5.53l.27.27c-4.41.05-8.82.16-13.24.16l-13.24.07.5-.5,0,11.19-.45-.45c2.18,0,4.36,0,6.55.06l6.58.11Z" style="fill:#ebebeb"></path><path d="M72.82,388.86l-13.12.28-6.66.11c-2.23,0-4.47,0-6.7.05H45.9v-.45l-.06-11.19v-.51h.5l13.24.06c4.41,0,8.83.11,13.24.16h.28v.27c0,1.9-.08,3.78-.13,5.65Zm0,0-.14-5.66c-.05-1.86-.11-3.7-.13-5.53l.27.27c-4.41.05-8.83.16-13.24.16l-13.24.07.5-.5-.05,11.19-.45-.45c2.18,0,4.36,0,6.55.06l6.58.11Z" style="fill:#ebebeb"></path><path d="M102.16,388.86,89,389.14l-6.66.11c-2.23,0-4.47,0-6.7.05h-.44v-.45l-.06-11.19v-.51h.5l13.24.06c4.42,0,8.83.11,13.24.16h.28v.27c0,1.9-.09,3.78-.14,5.65Zm0,0L102,383.2c0-1.86-.11-3.7-.13-5.53l.27.27c-4.41.05-8.82.16-13.24.16l-13.24.07.5-.5-.05,11.19-.45-.45c2.18,0,4.36,0,6.55.06l6.58.11Z" style="fill:#ebebeb"></path><path d="M122.79,214.2l-13.13.27-6.66.12c-2.22,0-4.46,0-6.69,0h-.45v-.45l0-11.18v-.51h.5l13.24.06c4.41,0,8.83.11,13.24.16h.27V203c0,1.89-.08,3.78-.13,5.65Zm0,0-.14-5.66c-.05-1.86-.12-3.7-.13-5.53l.27.27c-4.41.05-8.83.16-13.24.16l-13.24.06.5-.49-.06,11.18-.44-.44c2.18,0,4.36,0,6.54.05l6.58.12Z" style="fill:#ebebeb"></path><path d="M108,228.3l-13.13.28-6.66.12c-2.22,0-4.46,0-6.69.05h-.45v-.45l0-11.18v-.51h.51l13.24.06c4.41,0,8.82.11,13.24.16h.27v.27c0,1.89-.09,3.78-.13,5.65Zm0,0-.15-5.65c0-1.86-.11-3.7-.13-5.53l.28.27c-4.42.05-8.83.16-13.24.16l-13.24.06.5-.49L82,228.3l-.44-.44c2.18,0,4.35,0,6.54,0l6.58.12Z" style="fill:#ebebeb"></path><path d="M453.66,259.61l-13.13.28-6.66.11c-2.22,0-4.46,0-6.69.05h-.45v-.45l-.05-11.19v-.5h.5l13.24.06c4.41,0,8.83.11,13.24.16h.27v.27c0,1.9-.08,3.78-.13,5.65Zm0,0-.14-5.66c0-1.86-.12-3.7-.13-5.53l.27.27c-4.41.05-8.83.16-13.24.16l-13.24.07.5-.5-.06,11.19-.44-.45c2.18,0,4.36,0,6.54.06l6.58.11Z" style="fill:#ebebeb"></path><path d="M438.89,61.14l-13.13.28-6.66.11c-2.22,0-4.46,0-6.69.06H412v-.45l0-11.19v-.5h.51l13.24.06c4.41,0,8.82.12,13.24.17h.27V50c0,1.9-.09,3.79-.13,5.66Zm0,0-.14-5.65c-.05-1.87-.12-3.71-.14-5.54l.28.27c-4.42.06-8.83.16-13.24.17l-13.24.06.5-.5-.06,11.19-.44-.44c2.18,0,4.35,0,6.54,0l6.58.11Z" style="fill:#ebebeb"></path><path d="M453.66,75.25l-13.13.28-6.66.11c-2.22,0-4.46,0-6.69.06h-.45v-.45l-.05-11.19v-.5h.5l13.24.06c4.41,0,8.83.12,13.24.17h.27v.27c0,1.9-.08,3.79-.13,5.66Zm0,0-.14-5.65c0-1.87-.12-3.71-.13-5.54l.27.27c-4.41.06-8.83.16-13.24.17l-13.24.06.5-.5-.06,11.19-.44-.44c2.18,0,4.36,0,6.54,0l6.58.11Z" style="fill:#ebebeb"></path><path d="M87.59,61.14l-13.12.28-6.66.11c-2.23,0-4.47,0-6.7.06h-.44v-.45L60.61,50v-.5h.5l13.24.06c4.42,0,8.83.12,13.24.17h.28V50c0,1.9-.09,3.79-.13,5.66Zm0,0-.14-5.65c0-1.87-.11-3.71-.13-5.54l.27.27c-4.41.06-8.82.16-13.24.17l-13.24.06.5-.5,0,11.19-.45-.44c2.18,0,4.36,0,6.55,0l6.58.11Z" style="fill:#ebebeb"></path><path d="M390.44,379.77l-13.12.28-6.66.11c-2.23,0-4.47,0-6.7.06h-.44v-.45l-.06-11.19v-.5h.5l13.24.07c4.41,0,8.83.11,13.24.16h.28v.27c0,1.9-.08,3.79-.13,5.66Zm0,0-.14-5.65c-.05-1.86-.11-3.71-.13-5.54l.27.28c-4.41.05-8.83.15-13.24.16l-13.24.06.5-.5,0,11.19-.45-.44c2.18,0,4.36,0,6.55.05l6.58.11Z" style="fill:#ebebeb"></path><path d="M406.34,201.49a21.26,21.26,0,0,0,5.36,4.21,21.79,21.79,0,1,0-5.36-4.21Z" style="fill:#ebebeb"></path><path d="M416.61,182.5a6.64,6.64,0,1,0,8.16-4.63A6.63,6.63,0,0,0,416.61,182.5Z" style="fill:#fff"></path><path d="M407.07,198.85l-.73,2.64a21.26,21.26,0,0,0,5.36,4.21,21.67,21.67,0,0,0,16.74,1.89l.73-2.63a11.46,11.46,0,0,0-22.1-6.11Z" style="fill:#fff"></path><path d="M73.78,346.64a29.24,29.24,0,0,0,9,2.33,29.78,29.78,0,1,0-9-2.33Z" style="fill:#ebebeb"></path><path d="M76.19,317.27A9.06,9.06,0,1,0,83.86,307,9.05,9.05,0,0,0,76.19,317.27Z" style="fill:#fff"></path><path d="M73.24,342.94l.54,3.7a29.24,29.24,0,0,0,9,2.33,29.65,29.65,0,0,0,22-6.83l-.54-3.68a15.66,15.66,0,0,0-31,4.48Z" style="fill:#fff"></path><path d="M147.39,113.89c-5,12.94-18.88,21.62-18.88,21.62s-15.27-6-22.53-17.78c-6.06-9.83-3.86-21.28,4-24.46C121.18,88.71,126,108.55,126,108.55s1.09-20.39,13-18C147.27,92.27,151.54,103.11,147.39,113.89Z" style="fill:#ebebeb"></path><path d="M111.31,148.24c2.36,7.8-.94,16.85-.94,16.85s-9.25,2.74-16.88-.1c-6.37-2.38-9.48-8.48-7-12.79,3.56-6.17,13,1.28,13,1.28s-6.86-9.85-.47-13C103.44,138.25,109.34,141.73,111.31,148.24Z" style="fill:#ebebeb"></path><path d="M397.94,264.59c-11.08,8.32-27.47,8.32-27.47,8.32s-9.77-13.17-9.68-27c.08-11.56,8-20.09,16.34-18.64,11.94,2.09,5.52,21.47,5.52,21.47s11.74-16.71,20.53-8.35C409.31,246.19,407.18,257.65,397.94,264.59Z" style="fill:#ebebeb"></path><g id="freepik--xsrjP0--inject-45"><path d="M371.25,127c-.89-.8-1.61-1.86-3-2-.52,0-.34-.44-.29-.72q1.26-7.57,2.53-15.15c.06-.36.14-.66.57-.8,4.18-1.29,6.5-4.84,9.41-7.71a15.33,15.33,0,0,0,4.72-11c0-1.16.64-1.58,1.71-1.64a2.56,2.56,0,0,1,2.73,1.39,20.81,20.81,0,0,1,1.09,7c-.1,1.95-1.1,3.7-1.66,5.55-.41,1.36-1,2.67-1.46,4,.3.31.71.24,1.08.31l12.79,2.15c1.8.31,2.59,1,2.64,2.2a3.46,3.46,0,0,1-2.48,3.39c-.34.11-.9-.13-1,.36s.48.55.74.8c1.37,1.32.71,3.46-1.29,4.42-.48.23-1.29,0-1.41.58s.68.62,1,1c1,1.44,0,3.63-2,4.25a6.66,6.66,0,0,0-.8.16c-.23.11-.47.23-.1.59,1.62,1.63,1.27,3.47-.81,4.49l-.62.31a3.65,3.65,0,0,1-2.33.11q-10-1.66-20.07-3.36A2.41,2.41,0,0,1,371.25,127Z" style="fill:#ebebeb;fill-rule:evenodd"></path><path d="M353.73,114.89c.54-3.2,1.09-6.41,1.6-9.62.11-.66.23-1,1-.82q5.85,1,11.73,2c.77.12.85.41.73,1.09q-1.67,9.67-3.25,19.37c-.13.82-.4,1-1.22.86-3.79-.68-7.58-1.33-11.38-1.9-1-.15-1-.5-.88-1.32C352.68,121.32,353.19,118.1,353.73,114.89Z" style="fill:#ebebeb;fill-rule:evenodd"></path></g><g id="freepik--xsrjp0--inject-45"><path d="M139.51,232.07c-1-.12-2-.51-2.94.05-.37.22-.43-.14-.53-.36q-2.64-5.73-5.27-11.47a.65.65,0,0,1,0-.8c2.24-2.81,2.18-6.29,2.83-9.59a12.52,12.52,0,0,0-1.86-9.65,1.26,1.26,0,0,1,.4-1.91,2.11,2.11,0,0,1,2.5-.31,17,17,0,0,1,4,4.24c.83,1.38,1,3,1.44,4.55.35,1.11.58,2.26.87,3.41.34.07.59-.16.87-.28l9.69-4.45c1.36-.62,2.21-.54,2.81.28a2.85,2.85,0,0,1-.12,3.45c-.18.23-.67.32-.53.71s.58.16.88.21c1.53.26,2.08,2,1.16,3.6-.22.37-.9.56-.69,1s.75.11,1.14.26c1.37.5,1.7,2.45.62,3.8-.14.18-.36.3-.47.48s-.21.38.2.46c1.86.35,2.46,1.76,1.52,3.42l-.28.5a3,3,0,0,1-1.53,1.15l-15.2,7A1.93,1.93,0,0,1,139.51,232.07Z" style="fill:#ebebeb;fill-rule:evenodd"></path><path d="M122,231.94c-1.11-2.43-2.21-4.87-3.35-7.29-.23-.49-.29-.76.32-1q4.47-2,8.89-4.07c.58-.28.76-.12,1,.4q3.33,7.35,6.73,14.67c.29.62.2.87-.43,1.15-2.89,1.29-5.77,2.6-8.62,4-.71.34-.93.14-1.2-.49C124.26,236.79,123.12,234.37,122,231.94Z" style="fill:#ebebeb;fill-rule:evenodd"></path></g></g><g id="freepik--Shadow--inject-45"><ellipse cx="250" cy="449.13" rx="191.51" ry="18.05" style="fill:#ebebeb"></ellipse></g><g id="freepik--Plant--inject-45"><path d="M392.91,355.64s-17.46-4-27-12.77S351,318.25,351,318.25a151.24,151.24,0,0,1,19.58,5.15,33.09,33.09,0,0,1,5.92,8.37,41.07,41.07,0,0,0,0-6,26.43,26.43,0,0,1,6.21,3.77C390.67,336.5,392.91,355.64,392.91,355.64Z" style="fill:#4D27FF"></path><path d="M361.87,325.93c-2.38-1.65-4.81-3.23-7.18-4.9a.14.14,0,0,1,.15-.23c4.5,2.69,8.93,5.56,13.22,8.57,1.5,1.05,3,2.14,4.42,3.25l-.3-.52c-.53-.87-1.08-1.73-1.63-2.59a36.51,36.51,0,0,0-3.71-4.95c0-.06,0-.14.09-.08,1.36,1.57,2.71,3.12,4,4.78.59.79,1.13,1.61,1.65,2.45.27.43.54.87.79,1.32l.26.45c2.26,1.77,4.46,3.62,6.55,5.57q2,1.81,3.75,3.75c-.67-2.11-1.26-4.25-2-6.33,0-.07.09-.1.11,0,.76,2.18,1.59,4.37,2.18,6.62,1.34,1.44,2.62,2.94,3.82,4.5l-.06-.29c-.2-.82-.4-1.64-.62-2.46-.43-1.58-.89-3.15-1.43-4.69a27.16,27.16,0,0,0-4.69-8.86c-.05-.06,0-.14.09-.08a34,34,0,0,1,6.69,14c.18.74.36,1.49.53,2.24.09.39.19.8.26,1.2.53.72,1,1.44,1.54,2.17a75.48,75.48,0,0,1,7.39,14.49,166.11,166.11,0,0,1,5.59,17.44c0,.12-.14.16-.17.05-3.42-10.22-6.91-20.58-12.75-29.71q-1.86-2.89-4-5.58a32.8,32.8,0,0,1-8.49-1.69,37.54,37.54,0,0,1-8.51-4.11c-1.53-1-2.93-2.15-4.36-3.29a.06.06,0,0,1,.08-.1,35.09,35.09,0,0,0,8,4.85,44.08,44.08,0,0,0,8.81,2.95c1.29.28,2.59.49,3.9.67a73.1,73.1,0,0,0-5.15-5.71c-.59-.59-1.2-1.15-1.8-1.72a41.29,41.29,0,0,0-6.46-3.69c-2.86-1.39-5.67-2.85-8.5-4.29-1.6-.81-3.19-1.65-4.8-2.43-.07,0,0-.14.06-.1,2.87,1.38,5.79,2.68,8.68,4,2.73,1.24,5.49,2.5,8.1,4l.33.19c-2.36-2.05-4.81-4-7.31-5.91Q365.44,328.42,361.87,325.93Z" style="fill:#263238"></path><path d="M362.86,334.93c1.42.63,2.87,1.18,4.27,1.83s2.82,1.47,4.19,2.28c.06,0,0,.12-.06.09-1.39-.66-2.8-1.29-4.18-2s-2.81-1.47-4.25-2.1C362.76,335,362.79,334.9,362.86,334.93Z" style="fill:#263238"></path><path d="M449.62,267.66a24.91,24.91,0,0,0-5.21,14.5c-.06,1.56.19,3.75.37,6.31a41.57,41.57,0,0,0-11.4,9.74,20.71,20.71,0,0,1,11.52-2.76,36.05,36.05,0,0,1-.67,5.22,19.55,19.55,0,0,0-7.4,1.46,16.64,16.64,0,0,1,6.67,1.33c-3.11,9.9-12.36,20.07-37.91,24.39a53.62,53.62,0,0,1,4.53-35.94C417.77,276.85,449.62,267.66,449.62,267.66Z" style="fill:#4D27FF"></path><path d="M396.75,370.22q.67-6.35,1.66-12.65a253.76,253.76,0,0,1,5.15-25,99.54,99.54,0,0,1,3.69-11.39,17.48,17.48,0,0,1-.1-2.05c0-.81,0-1.63,0-2.45,0-1.64.09-3.27.23-4.9a59.63,59.63,0,0,1,1.57-9.58c.47-1.82,1-3.61,1.55-5.41a.06.06,0,0,1,.11,0,70.85,70.85,0,0,0-1.88,9.56,88.26,88.26,0,0,0-.86,9.59c0,.88-.05,1.76-.05,2.64,0,.37,0,.75,0,1.12a81,81,0,0,1,4.3-8.91,110,110,0,0,1,8.75-13.08,5.66,5.66,0,0,1,.2-1.42c.12-.58.25-1.15.38-1.71.26-1.17.55-2.33.87-3.49.63-2.31,1.47-4.55,2.19-6.83a.06.06,0,0,1,.12,0c-.68,2.27-1.12,4.61-1.64,6.91-.26,1.14-.51,2.28-.76,3.42-.12.57-.25,1.14-.36,1.71l0,.13c1-1.3,2.09-2.59,3.17-3.85,4.87-5.72,10.22-11,15.61-16.24.66-.64,1.34-1.27,2-1.9.05-.06.13,0,.08.08-5.15,5.37-10.21,10.8-15,16.48q-1.71,2-3.36,4.1c.58-.39,1.16-.78,1.74-1.15,1.49-1,3-1.92,4.54-2.79s3.11-1.72,4.71-2.51,3.39-1.47,5-2.39c.06,0,.12.08.05.1a36.58,36.58,0,0,0-4.66,2.59c-1.55.92-3.11,1.85-4.63,2.82s-3,1.89-4.5,2.85c-1.25.81-2.47,1.69-3.76,2.44A122.49,122.49,0,0,0,414.64,309a87.75,87.75,0,0,0-4.23,8l.91-.39,2.34-1,4.52-2c2.87-1.24,5.78-2.39,8.59-3.75a40.17,40.17,0,0,0,4.58-2.55.06.06,0,0,1,.06.1c-5.24,3.62-11.11,6.16-16.91,8.72L412,317.27c-.69.3-1.38.64-2.09.91A89,89,0,0,0,405.58,330,239.71,239.71,0,0,0,400,354.73c-1.47,8.34-2.46,16.74-3.22,25.18-.1,1-.19,2.1-.31,3.15a.34.34,0,0,1-.67,0C395.87,378.76,396.31,374.48,396.75,370.22Z" style="fill:#263238"></path><path d="M412.29,299.67c.47-2.59,1.16-5.13,1.86-7.67,0-.08.14,0,.12,0-.65,2.5-1.11,5-1.58,7.57s-.9,5.18-1.26,7.78c0,0-.08,0-.08,0A69,69,0,0,1,412.29,299.67Z" style="fill:#263238"></path><path d="M423.3,306.72a45.27,45.27,0,0,1,5.56-3.13c.93-.48,1.87-.94,2.82-1.39s2-.87,2.94-1.35c.07,0,.13.07.06.1-.93.47-1.82,1-2.74,1.54s-1.88,1-2.83,1.55c-1.87,1-3.71,2.11-5.67,2.93A.14.14,0,0,1,423.3,306.72Z" style="fill:#263238"></path><path d="M392.59,325.4s-16.15-3.86-23.57-14.7c-7.09-10.35-9.38-28-9.56-29.54.29,1.42,3.63,16.84,14.63,24C382.51,310.69,390.64,315.21,392.59,325.4Z" style="fill:#263238;opacity:0.1"></path><path d="M377.68,297.49a20.59,20.59,0,0,1,6,9.81s0,.05-.05,0a24.14,24.14,0,0,0-6-9.73C377.55,297.52,377.63,297.43,377.68,297.49Z" style="fill:#263238"></path><path d="M392.59,325.4s-16.15-3.86-23.57-14.7c-7.09-10.35-9.38-28-9.56-29.54,0-.07,0-.11,0-.11s7.75,11,15.9,13.82S394.93,307.4,392.59,325.4Z" style="fill:#4D27FF"></path><path d="M362.31,287.12a66.13,66.13,0,0,0,5,8.54A34,34,0,0,0,374,302.5c2.19,1.75,4.51,3.33,6.73,5l-.05-.08c-.41-.62-.86-1.22-1.32-1.8-.92-1.19-1.94-2.3-2.95-3.41-2-2.17-4.06-4.31-5.86-6.67a24.2,24.2,0,0,1-2.59-4.17c0-.07.08-.11.11,0,2.62,5.46,7.86,8.95,11.59,13.57a23.16,23.16,0,0,1,1.49,2,8,8,0,0,1,.93,1.64,33.76,33.76,0,0,1,5.51,5.57,22.12,22.12,0,0,0-.64-3.14,16.14,16.14,0,0,0-1.72-4.09c0-.06.06-.13.1-.06a19,19,0,0,1,1.89,4.06,14.91,14.91,0,0,1,.59,3.49h0a30.28,30.28,0,0,1,2.19,3.4c-.07-.35-.14-.69-.2-1-.32-1.61-.68-3.21-1.1-4.8a28.67,28.67,0,0,0-3.88-9.1c0-.07.05-.13.1-.07a34.75,34.75,0,0,1,4.3,8.91,49.58,49.58,0,0,1,1.29,4.82c.18.79.34,1.59.49,2.39.08.42.17.84.24,1.26a57.79,57.79,0,0,1,3.72,11,160.31,160.31,0,0,1,3.45,20.42,169.09,169.09,0,0,1,1.11,21.69c0,.91-.07,1.82-.12,2.73,0,.23-.36.26-.37,0-.16-3.59-.25-7.18-.47-10.76s-.52-7.16-.9-10.73a191.28,191.28,0,0,0-3.37-20.89c-1.31-5.9-3-11.85-6.24-17a31.7,31.7,0,0,0-5.82-6.93c-2.27-2-4.75-3.82-7.13-5.7a39.81,39.81,0,0,1-6.55-6.29,51.3,51.3,0,0,1-5.13-8.34c-.39-.73-.78-1.46-1.16-2.19C362.17,287.12,362.27,287.06,362.31,287.12Z" style="fill:#263238"></path><path d="M365.1,289.49a54.41,54.41,0,0,0,3.59,6.3s0,.09-.07,0a44,44,0,0,1-3.64-6.31C365,289.46,365.06,289.42,365.1,289.49Z" style="fill:#263238"></path><path d="M451.88,318.25s.25,23-13.48,29.59S417.32,349,408,351.17h0c.36-.55,7-10.12,17.6-12.76C436.51,335.69,448.57,327.82,451.88,318.25Z" style="fill:#4D27FF"></path><path d="M451.88,318.25s.25,23-13.48,29.59S417.32,349,408,351.17h0a51.67,51.67,0,0,1,15.6-4.61C432.27,345.51,448.81,339.87,451.88,318.25Z" style="opacity:0.1"></path><path d="M407.09,351.58a22.75,22.75,0,0,1,5.46-3.7c.29-.14.59-.26.89-.38.15-.19.3-.36.46-.53a16.85,16.85,0,0,1,1.3-1.23,19.34,19.34,0,0,1,2.76-2c2.27-1.34,4.76-2.27,7.09-3.51a.06.06,0,0,1,.06.1c-1.15.6-2.27,1.25-3.38,1.91s-2.21,1.24-3.26,1.92a22.44,22.44,0,0,0-2.72,2c-.24.21-.47.44-.71.67a37.3,37.3,0,0,1,4.64-1.23c2.52-.51,5.06-.87,7.57-1.4a35.6,35.6,0,0,0,3.64-1c1.14-.91,2.28-1.82,3.35-2.82a27.53,27.53,0,0,0,3.55-3.93c0-.07.15,0,.1.06a41.88,41.88,0,0,1-5.62,6.21c.59-.23,1.17-.47,1.75-.73a28.33,28.33,0,0,0,11.7-9.73c0-.06.14,0,.1.06a32.15,32.15,0,0,1-9.46,9.09,29,29,0,0,1-6,2.83,55.67,55.67,0,0,1-7.43,1.75,53.5,53.5,0,0,0-7.28,1.73,22.26,22.26,0,0,0-6.1,3.21,28.65,28.65,0,0,0-8.23,10.2A51.48,51.48,0,0,0,396.81,378a.2.2,0,0,1-.39,0C397.07,368.32,399.65,358.28,407.09,351.58Z" style="fill:#263238"></path><path d="M423,344.09a7.8,7.8,0,0,1,2.82-2.56,10.23,10.23,0,0,0,3.35-2.78c.05-.06.15,0,.11.07a11.38,11.38,0,0,1-3,2.65,10.43,10.43,0,0,0-3.23,2.67A0,0,0,1,1,423,344.09Z" style="fill:#263238"></path><polygon points="415.73 368.52 415.11 381.15 413.19 419.72 384.4 419.72 382.48 381.15 381.86 368.52 415.73 368.52" style="fill:#37474f"></polygon><polygon points="415.73 368.52 415.11 381.15 382.48 381.15 381.86 368.52 415.73 368.52" style="fill:#263238"></polygon><rect x="379.84" y="363.25" width="37.91" height="12.04" style="fill:#37474f"></rect></g><g id="freepik--Floor--inject-45"><polygon points="47.44 419.72 98.08 419.47 148.72 419.39 250 419.22 351.28 419.38 401.92 419.47 452.56 419.72 401.92 419.96 351.28 420.05 250 420.22 148.72 420.05 98.08 419.96 47.44 419.72" style="fill:#263238"></polygon></g><g id="freepik--Device--inject-45"><path d="M332.21,47.29H167.77a16.79,16.79,0,0,0-16.64,16.94V402.77a16.8,16.8,0,0,0,16.64,17H332.21a16.81,16.81,0,0,0,16.66-17V64.23A16.8,16.8,0,0,0,332.21,47.29Zm6.26,345c0,8.92-6.67,16.12-14.9,16.12H176.44c-8.25,0-14.92-7.2-14.92-16.12V77.07c0-18.16,6.67-19,14.92-19h29.47C207.62,58,209,60,209,62.39v1c0,5.65,3.1,5.67,6.9,5.67h68.15c3.83,0,6.9,0,6.9-5.67v-1C291,60,292.35,58,294.09,58h29.48c8.23,0,14.9,2.41,14.9,19Z" style="fill:#263238"></path><path d="M259.29,62H240.7a1.15,1.15,0,0,1-1.15-1.15h0a1.16,1.16,0,0,1,1.15-1.15h18.59a1.15,1.15,0,0,1,1.15,1.15h0A1.14,1.14,0,0,1,259.29,62Z" style="fill:#fff"></path><path d="M338.47,77.07V392.3c0,8.92-6.67,16.12-14.9,16.12H176.45c-8.25,0-14.93-7.2-14.93-16.12V77.07c0-18.16,6.68-19,14.93-19h29.46C207.62,58,209,60,209,62.39v1c0,5.65,3.1,5.67,6.9,5.67h68.15c3.84,0,6.9,0,6.9-5.67v-1C291,60,292.35,58,294.09,58h29.48C331.8,58,338.47,60.44,338.47,77.07Z" style="fill:#fff"></path><polygon points="177.25 87.46 174.1 84.51 177.25 81.56 177.74 82.08 175.14 84.51 177.74 86.94 177.25 87.46" style="fill:#dbdbdb"></polygon><path d="M317.56,83.48a1,1,0,1,1-1,1A1,1,0,0,1,317.56,83.48Z" style="fill:#dbdbdb"></path><path d="M321.21,83.48a1,1,0,1,1-1,1A1,1,0,0,1,321.21,83.48Z" style="fill:#dbdbdb"></path><path d="M324.87,83.48a1,1,0,1,1-1,1A1,1,0,0,1,324.87,83.48Z" style="fill:#dbdbdb"></path><g id="freepik--u5Zjqx--inject-45"><path d="M200.83,65.11l-.29.28c0,.06-.11.11-.16.16a3.82,3.82,0,0,0-2.74-1.13,3.77,3.77,0,0,0-2.75,1.14l-.15-.16-.28-.29h0l0,0,.36-.31a3.78,3.78,0,0,1,.83-.53,4.29,4.29,0,0,1,1.11-.38l.55-.07h.48l.38,0a4.5,4.5,0,0,1,1,.24,4.61,4.61,0,0,1,1.34.78l.3.27Z" style="fill:#c7c7c7"></path><path d="M195.79,66.45l-.45-.45a3.24,3.24,0,0,1,4.59,0l-.45.45a2.56,2.56,0,0,0-1.84-.77A2.63,2.63,0,0,0,195.79,66.45Z" style="fill:#c7c7c7"></path><path d="M199,66.9l-.45.44a1.33,1.33,0,0,0-1.89,0l-.44-.45A1.94,1.94,0,0,1,199,66.9Z" style="fill:#c7c7c7"></path><path d="M198,67.75a.41.41,0,1,1-.4-.4A.4.4,0,0,1,198,67.75Z" style="fill:#c7c7c7"></path></g><path d="M173.06,66a1.18,1.18,0,1,1,1.17,1.17A1.17,1.17,0,0,1,173.06,66Z" style="fill:#c7c7c7"></path><path d="M176.75,66a1.18,1.18,0,1,1,1.18,1.17A1.17,1.17,0,0,1,176.75,66Z" style="fill:#c7c7c7"></path><path d="M180.45,66a1.17,1.17,0,1,1,1.17,1.17A1.17,1.17,0,0,1,180.45,66Z" style="fill:#c7c7c7"></path><path d="M184.14,66a1.18,1.18,0,1,1,1.17,1.17A1.17,1.17,0,0,1,184.14,66Z" style="fill:#c7c7c7"></path><path d="M187.83,66A1.18,1.18,0,1,1,189,67.14,1.17,1.17,0,0,1,187.83,66Z" style="fill:#c7c7c7"></path><path d="M325.2,68.54h-9.56V64.1h9.56Zm-9.06-.5h8.56V64.6h-8.56Z" style="fill:#c7c7c7"></path><rect x="316.44" y="64.86" width="6.15" height="2.92" style="fill:#c7c7c7"></rect><rect x="325.2" y="65.14" width="0.85" height="2.37" style="fill:#c7c7c7"></rect><rect x="173.69" y="240.61" width="47.53" height="47.53" transform="translate(394.91 528.75) rotate(180)" style="fill:#dbdbdb"></rect><path d="M181.34,252a4.49,4.49,0,1,0,3.53-3.52A4.5,4.5,0,0,0,181.34,252Z" style="fill:#ebebeb"></path><polygon points="186.87 275.8 221.22 275.8 204.04 256.54 186.87 275.8" style="fill:#c7c7c7"></polygon><polygon points="173.69 275.8 202.05 275.8 187.87 263.26 173.69 275.8" style="fill:#ebebeb"></polygon><rect x="173.69" y="275.8" width="47.53" height="12.34" style="fill:#ebebeb"></rect><rect x="226.23" y="240.61" width="47.53" height="47.53" transform="translate(499.99 528.75) rotate(180)" style="fill:#dbdbdb"></rect><path d="M233.89,252a4.48,4.48,0,1,0,3.52-3.52A4.49,4.49,0,0,0,233.89,252Z" style="fill:#ebebeb"></path><polygon points="239.41 275.8 273.76 275.8 256.58 256.54 239.41 275.8" style="fill:#c7c7c7"></polygon><polygon points="226.23 275.8 254.59 275.8 240.41 263.26 226.23 275.8" style="fill:#ebebeb"></polygon><rect x="226.23" y="275.8" width="47.53" height="12.34" style="fill:#ebebeb"></rect><rect x="278.77" y="240.61" width="47.53" height="47.53" transform="translate(605.07 528.75) rotate(180)" style="fill:#dbdbdb"></rect><path d="M286.43,252a4.48,4.48,0,1,0,3.52-3.52A4.49,4.49,0,0,0,286.43,252Z" style="fill:#ebebeb"></path><polygon points="291.95 275.8 326.3 275.8 309.13 256.54 291.95 275.8" style="fill:#c7c7c7"></polygon><polygon points="278.77 275.8 307.13 275.8 292.95 263.26 278.77 275.8" style="fill:#ebebeb"></polygon><rect x="278.77" y="275.8" width="47.53" height="12.34" style="fill:#ebebeb"></rect><rect x="173.69" y="292.93" width="47.53" height="47.53" transform="translate(394.91 633.39) rotate(180)" style="fill:#dbdbdb"></rect><path d="M181.34,304.27a4.49,4.49,0,1,0,3.53-3.52A4.5,4.5,0,0,0,181.34,304.27Z" style="fill:#ebebeb"></path><polygon points="186.87 328.13 221.22 328.13 204.04 308.87 186.87 328.13" style="fill:#c7c7c7"></polygon><polygon points="173.69 328.13 202.05 328.13 187.87 315.58 173.69 328.13" style="fill:#ebebeb"></polygon><rect x="173.69" y="328.13" width="47.53" height="12.34" style="fill:#ebebeb"></rect><rect x="226.23" y="292.93" width="47.53" height="47.53" transform="translate(499.99 633.39) rotate(180)" style="fill:#dbdbdb"></rect><path d="M233.89,304.27a4.48,4.48,0,1,0,3.52-3.52A4.49,4.49,0,0,0,233.89,304.27Z" style="fill:#ebebeb"></path><polygon points="239.41 328.13 273.76 328.13 256.58 308.87 239.41 328.13" style="fill:#c7c7c7"></polygon><polygon points="226.23 328.13 254.59 328.13 240.41 315.58 226.23 328.13" style="fill:#ebebeb"></polygon><rect x="226.23" y="328.13" width="47.53" height="12.34" style="fill:#ebebeb"></rect><rect x="278.77" y="292.93" width="47.53" height="47.53" transform="translate(605.07 633.39) rotate(180)" style="fill:#dbdbdb"></rect><path d="M286.43,304.27a4.48,4.48,0,1,0,3.52-3.52A4.49,4.49,0,0,0,286.43,304.27Z" style="fill:#ebebeb"></path><polygon points="291.95 328.13 326.3 328.13 309.13 308.87 291.95 328.13" style="fill:#c7c7c7"></polygon><polygon points="278.77 328.13 307.13 328.13 292.95 315.58 278.77 328.13" style="fill:#ebebeb"></polygon><rect x="278.77" y="328.13" width="47.53" height="12.34" style="fill:#ebebeb"></rect><rect x="173.69" y="345.25" width="47.53" height="47.53" transform="translate(394.91 738.04) rotate(180)" style="fill:#dbdbdb"></rect><path d="M181.34,356.6a4.49,4.49,0,1,0,3.53-3.53A4.49,4.49,0,0,0,181.34,356.6Z" style="fill:#ebebeb"></path><polygon points="186.87 380.45 221.22 380.45 204.04 361.19 186.87 380.45" style="fill:#c7c7c7"></polygon><polygon points="173.69 380.45 202.05 380.45 187.87 367.91 173.69 380.45" style="fill:#ebebeb"></polygon><rect x="173.69" y="380.45" width="47.53" height="12.34" style="fill:#ebebeb"></rect><rect x="226.23" y="345.25" width="47.53" height="47.53" transform="translate(499.99 738.04) rotate(180)" style="fill:#dbdbdb"></rect><path d="M233.89,356.6a4.48,4.48,0,1,0,3.52-3.53A4.48,4.48,0,0,0,233.89,356.6Z" style="fill:#ebebeb"></path><polygon points="239.41 380.45 273.76 380.45 256.58 361.19 239.41 380.45" style="fill:#c7c7c7"></polygon><polygon points="226.23 380.45 254.59 380.45 240.41 367.91 226.23 380.45" style="fill:#ebebeb"></polygon><rect x="226.23" y="380.45" width="47.53" height="12.34" style="fill:#ebebeb"></rect><rect x="278.77" y="345.25" width="47.53" height="47.53" transform="translate(605.07 738.04) rotate(180)" style="fill:#dbdbdb"></rect><path d="M286.43,356.6a4.48,4.48,0,1,0,3.52-3.53A4.49,4.49,0,0,0,286.43,356.6Z" style="fill:#ebebeb"></path><polygon points="291.95 380.45 326.3 380.45 309.13 361.19 291.95 380.45" style="fill:#c7c7c7"></polygon><polygon points="278.77 380.45 307.13 380.45 292.95 367.91 278.77 380.45" style="fill:#ebebeb"></polygon><rect x="278.77" y="380.45" width="47.53" height="12.34" style="fill:#ebebeb"></rect><rect x="173.69" y="184.68" width="72.59" height="14.8" style="fill:#4D27FF"></rect><path d="M200,194.12V190a.39.39,0,0,1,.38-.39h2.28a.39.39,0,0,1,0,.78h-1.89v1.27h1.63a.39.39,0,0,1,.38.38.39.39,0,0,1-.38.39h-1.63v1.67a.39.39,0,0,1-.77,0Z" style="fill:#fff"></path><path d="M203.92,194a1.75,1.75,0,0,1-.48-1.23,1.81,1.81,0,0,1,.48-1.22,1.65,1.65,0,0,1,1.2-.53,1.57,1.57,0,0,1,1.16.53,1.78,1.78,0,0,1,.49,1.22,1.71,1.71,0,0,1-.49,1.23,1.56,1.56,0,0,1-1.16.52A1.65,1.65,0,0,1,203.92,194Zm.28-1.23a1.14,1.14,0,0,0,.25.74,1,1,0,0,0,1.31,0,1.1,1.1,0,0,0,.27-.74,1.07,1.07,0,0,0-.27-.72.93.93,0,0,0-1.31,0A1.1,1.1,0,0,0,204.2,192.77Z" style="fill:#fff"></path><path d="M208.38,189.63a.39.39,0,0,1,.39.39v4.1a.39.39,0,0,1-.77,0V190A.39.39,0,0,1,208.38,189.63Z" style="fill:#fff"></path><path d="M210.11,189.63a.39.39,0,0,1,.39.39v4.1a.38.38,0,0,1-.39.38.39.39,0,0,1-.38-.38V190A.4.4,0,0,1,210.11,189.63Z" style="fill:#fff"></path><path d="M211.74,194a1.75,1.75,0,0,1-.48-1.23,1.81,1.81,0,0,1,.48-1.22,1.63,1.63,0,0,1,1.19-.53,1.59,1.59,0,0,1,1.17.53,1.77,1.77,0,0,1,.48,1.22,1.71,1.71,0,0,1-.48,1.23,1.58,1.58,0,0,1-1.17.52A1.62,1.62,0,0,1,211.74,194Zm.28-1.23a1.14,1.14,0,0,0,.25.74.91.91,0,0,0,.66.26.88.88,0,0,0,.64-.26,1.06,1.06,0,0,0,.28-.74,1,1,0,0,0-.28-.72.93.93,0,0,0-.64-.27,1,1,0,0,0-.66.27A1.1,1.1,0,0,0,212,192.77Z" style="fill:#fff"></path><path d="M220,191.58l-1.15,2.7a.14.14,0,0,1,0,.06h0l0,0h0s0,0,0,0h0a.13.13,0,0,1-.06,0h0l-.05,0h-.16l-.05,0h0a.13.13,0,0,1-.06,0h0l0,0h0l0,0h0a.14.14,0,0,1,0-.06l-.51-1.2-.49,1.2,0,.06h0l0,0h0s0,0,0,0l-.06,0h0l-.05,0h-.17l0,0h0a.13.13,0,0,1-.06,0h0l0,0h0l0,0h0l0-.06-1.14-2.7a.37.37,0,0,1,.2-.48.35.35,0,0,1,.46.21l.82,1.87.49-1.16a.37.37,0,0,1,.68,0l.49,1.16.83-1.87a.34.34,0,0,1,.46-.21A.36.36,0,0,1,220,191.58Z" style="fill:#fff"></path><rect x="253.72" y="184.68" width="72.59" height="14.8" style="fill:#ebebeb"></rect><path d="M279.79,189.4v4.11a.39.39,0,0,1-.39.38.37.37,0,0,1-.38-.38v-2.93L278,192a.35.35,0,0,1-.31.16h0a.36.36,0,0,1-.32-.16l-1-1.39v2.93a.39.39,0,0,1-.77,0V189.4A.38.38,0,0,1,276,189h0a.4.4,0,0,1,.31.16l1.38,1.92,1.39-1.92a.4.4,0,0,1,.31-.16h0A.4.4,0,0,1,279.79,189.4Z" style="fill:#263238"></path><path d="M281.16,192.15a1.72,1.72,0,0,1,1.69-1.74,1.67,1.67,0,0,1,1.68,1.62v0s0,.05,0,.06a.33.33,0,0,1-.36.28H282a.91.91,0,0,0,.23.46,1.08,1.08,0,0,0,.67.31,1.12,1.12,0,0,0,.73-.17.4.4,0,0,1,.52,0,.32.32,0,0,1,0,.45,1.75,1.75,0,0,1-2.94-1.28Zm.75-.34h2a1.13,1.13,0,0,0-1-.74A1,1,0,0,0,281.91,191.81Z" style="fill:#263238"></path><path d="M285.47,192.9a.36.36,0,0,1,.52-.06,1.36,1.36,0,0,0,.77.31.9.9,0,0,0,.47-.14.28.28,0,0,0,.13-.2.12.12,0,0,0,0-.07.36.36,0,0,0-.09-.09,1.7,1.7,0,0,0-.56-.19h0a2.79,2.79,0,0,1-.6-.18,1.12,1.12,0,0,1-.48-.41.77.77,0,0,1-.12-.43,1,1,0,0,1,.41-.77,1.45,1.45,0,0,1,.85-.26,1.76,1.76,0,0,1,1.05.39.38.38,0,0,1,.11.51.37.37,0,0,1-.52.1,1.14,1.14,0,0,0-.64-.26.69.69,0,0,0-.41.13.2.2,0,0,0-.11.16.09.09,0,0,0,0,.05.31.31,0,0,0,.08.07,1.42,1.42,0,0,0,.5.17h0a2.67,2.67,0,0,1,.64.21,1,1,0,0,1,.5.41.94.94,0,0,1,.13.46,1,1,0,0,1-.44.8,1.53,1.53,0,0,1-.9.28,2.07,2.07,0,0,1-1.24-.48A.37.37,0,0,1,285.47,192.9Z" style="fill:#263238"></path><path d="M288.83,192.9a.36.36,0,0,1,.52-.06,1.33,1.33,0,0,0,.76.31.94.94,0,0,0,.48-.14.29.29,0,0,0,.12-.2s0-.05,0-.07a.24.24,0,0,0-.09-.09,1.7,1.7,0,0,0-.56-.19h0a2.72,2.72,0,0,1-.61-.18,1.18,1.18,0,0,1-.48-.41.86.86,0,0,1-.12-.43,1,1,0,0,1,.41-.77,1.5,1.5,0,0,1,.86-.26,1.72,1.72,0,0,1,1,.39.37.37,0,0,1,.11.51.36.36,0,0,1-.51.1,1.17,1.17,0,0,0-.64-.26.72.72,0,0,0-.42.13.2.2,0,0,0-.11.16.09.09,0,0,0,0,.05.31.31,0,0,0,.08.07,1.41,1.41,0,0,0,.51.17h0a2.75,2.75,0,0,1,.65.21,1,1,0,0,1,.49.41.86.86,0,0,1,.14.46,1,1,0,0,1-.44.8,1.54,1.54,0,0,1-.91.28,2,2,0,0,1-1.23-.48A.35.35,0,0,1,288.83,192.9Z" style="fill:#263238"></path><path d="M295.36,192.16v1.36a.37.37,0,0,1-.73.07,1.56,1.56,0,0,1-.92.3,1.6,1.6,0,0,1-1.19-.51,1.83,1.83,0,0,1,0-2.45,1.61,1.61,0,0,1,1.19-.52,1.57,1.57,0,0,1,.92.31.38.38,0,0,1,.36-.31.38.38,0,0,1,.37.38Zm-.74,0a1,1,0,0,0-.27-.72.88.88,0,0,0-1.29,0,1,1,0,0,0-.27.72,1.07,1.07,0,0,0,.27.72.91.91,0,0,0,1.29,0A1.07,1.07,0,0,0,294.62,192.16Z" style="fill:#263238"></path><path d="M300.08,192.17v1.3a1.67,1.67,0,0,1-1.67,1.67,1.64,1.64,0,0,1-.73-.18.37.37,0,0,1-.17-.5.37.37,0,0,1,.5-.17.91.91,0,0,0,.4.1.93.93,0,0,0,.91-.75,1.63,1.63,0,0,1-.91.28,1.59,1.59,0,0,1-1.18-.53,1.75,1.75,0,0,1-.49-1.22,1.82,1.82,0,0,1,.49-1.24,1.62,1.62,0,0,1,1.18-.52,1.52,1.52,0,0,1,.93.3.38.38,0,0,1,.37-.3.37.37,0,0,1,.37.37v1.39Zm-.74,0a1,1,0,0,0-.27-.71.84.84,0,0,0-.66-.3.83.83,0,0,0-.64.3,1,1,0,0,0-.28.71,1,1,0,0,0,.28.71.85.85,0,0,0,.64.29.86.86,0,0,0,.66-.29A1,1,0,0,0,299.34,192.17Z" style="fill:#263238"></path><path d="M301.32,192.15a1.73,1.73,0,0,1,1.7-1.74A1.68,1.68,0,0,1,304.7,192v0s0,.05,0,.06a.33.33,0,0,1-.36.28h-2.21a.91.91,0,0,0,.23.46,1.13,1.13,0,0,0,1.39.14.4.4,0,0,1,.52,0,.31.31,0,0,1,0,.45,1.75,1.75,0,0,1-2.94-1.28Zm.76-.34h2a1.15,1.15,0,0,0-1-.74A1,1,0,0,0,302.08,191.81Z" style="fill:#263238"></path><path d="M267.61,223.59a8,8,0,0,1-2.38,1,8.24,8.24,0,1,1,2.38-1Z" style="fill:#263238"></path><path d="M263.26,226.5a9.9,9.9,0,1,1,5.16-18.37,9.91,9.91,0,0,1,.07,16.89,10.1,10.1,0,0,1-5.23,1.48Zm0-19a9.55,9.55,0,0,0-2.18.26,9.1,9.1,0,0,0,4.32,17.67,9.17,9.17,0,0,0,2.62-1.1h0a9.09,9.09,0,0,0-4.76-16.83Z" style="fill:#4D27FF"></path><path d="M265.78,215.65a2.5,2.5,0,1,1-2.5-2.5A2.5,2.5,0,0,1,265.78,215.65Z" style="fill:#fff"></path><path d="M267.61,222.56v1a8,8,0,0,1-2.38,1,8.22,8.22,0,0,1-6.28-1v-1a4.33,4.33,0,0,1,8.66,0Z" style="fill:#fff"></path><path d="M187.92,223.59a7.94,7.94,0,0,1-2.37,1,8.25,8.25,0,1,1,2.37-1Z" style="fill:#4D27FF"></path><path d="M183.57,226.5a9.71,9.71,0,0,1-5.18-1.49,9.9,9.9,0,1,1,10.41,0,10.1,10.1,0,0,1-5.23,1.48Zm.05-19a9.48,9.48,0,0,0-2.18.26,9.09,9.09,0,1,0,6.93,16.57h0a9.09,9.09,0,0,0-4.76-16.83Z" style="fill:#4D27FF"></path><circle cx="183.59" cy="215.65" r="2.5" style="fill:#fff"></circle><path d="M187.92,222.56v1a7.94,7.94,0,0,1-2.37,1,8.22,8.22,0,0,1-6.28-1v-1a4.33,4.33,0,0,1,8.65,0Z" style="fill:#fff"></path><path d="M214.48,223.59a7.94,7.94,0,0,1-2.37,1,8.25,8.25,0,1,1,2.37-1Z" style="fill:#455a64"></path><path d="M210.13,226.5a9.93,9.93,0,0,1-9.59-7.55A9.9,9.9,0,1,1,215.36,225a9.52,9.52,0,0,1-2.85,1.19A9.69,9.69,0,0,1,210.13,226.5Zm.05-19a9.48,9.48,0,0,0-2.18.26,9.09,9.09,0,1,0,6.94,16.57h0a9.09,9.09,0,0,0-4.76-16.83Z" style="fill:#4D27FF"></path><path d="M212.66,215.65a2.51,2.51,0,1,1-2.5-2.5A2.5,2.5,0,0,1,212.66,215.65Z" style="fill:#fff"></path><path d="M214.48,222.56v1a7.94,7.94,0,0,1-2.37,1,8.22,8.22,0,0,1-6.28-1v-1a4.33,4.33,0,0,1,8.65,0Z" style="fill:#fff"></path><path d="M241,223.59a7.94,7.94,0,0,1-2.37,1,8.25,8.25,0,1,1,2.37-1Z" style="fill:#a6a6a6"></path><path d="M236.69,226.5A9.93,9.93,0,0,1,227.1,219,9.9,9.9,0,1,1,241.92,225a9.52,9.52,0,0,1-2.85,1.19A9.69,9.69,0,0,1,236.69,226.5Zm.05-19a9.48,9.48,0,0,0-2.18.26,9.1,9.1,0,0,0,4.32,17.67,9.17,9.17,0,0,0,2.62-1.1h0a9.09,9.09,0,0,0-4.76-16.83Z" style="fill:#4D27FF"></path><path d="M239.22,215.65a2.51,2.51,0,1,1-2.5-2.5A2.5,2.5,0,0,1,239.22,215.65Z" style="fill:#fff"></path><path d="M241,222.56v1a7.94,7.94,0,0,1-2.37,1,8.22,8.22,0,0,1-6.28-1v-1a4.33,4.33,0,0,1,8.65,0Z" style="fill:#fff"></path><path d="M294.17,223.59a8.06,8.06,0,0,1-2.37,1,8.25,8.25,0,1,1,2.37-1Z" style="fill:#4D27FF"></path><path d="M289.82,226.5a9.93,9.93,0,0,1-9.6-7.55A9.9,9.9,0,1,1,295.05,225a10.1,10.1,0,0,1-5.23,1.48Zm0-19a9.46,9.46,0,0,0-2.17.26A9.09,9.09,0,1,0,292,225.43a9.17,9.17,0,0,0,2.62-1.1h0a9.09,9.09,0,0,0-4.76-16.83Z" style="fill:#4D27FF"></path><path d="M292.35,215.65a2.51,2.51,0,1,1-2.51-2.5A2.51,2.51,0,0,1,292.35,215.65Z" style="fill:#fff"></path><path d="M294.17,222.56v1a8.06,8.06,0,0,1-2.37,1,8.24,8.24,0,0,1-6.29-1v-1a4.33,4.33,0,0,1,8.66,0Z" style="fill:#fff"></path><path d="M320.73,223.59a8.06,8.06,0,0,1-2.37,1,8.25,8.25,0,1,1,2.37-1Z" style="fill:#455a64"></path><path d="M316.38,226.5A9.71,9.71,0,0,1,311.2,225a9.9,9.9,0,1,1,10.41,0,10.1,10.1,0,0,1-5.23,1.48Zm0-19a9.46,9.46,0,0,0-2.17.26,9.09,9.09,0,1,0,4.31,17.67,9.17,9.17,0,0,0,2.62-1.1h0a9.09,9.09,0,0,0-4.76-16.83Z" style="fill:#4D27FF"></path><path d="M318.91,215.65a2.51,2.51,0,1,1-2.51-2.5A2.51,2.51,0,0,1,318.91,215.65Z" style="fill:#fff"></path><path d="M320.73,222.56v1a8.06,8.06,0,0,1-2.37,1,8.21,8.21,0,0,1-6.28-1v-1a4.33,4.33,0,0,1,8.65,0Z" style="fill:#fff"></path><path d="M177.84,229.37c1.92-.2,3.84-.24,5.76-.25s3.83,0,5.75.25c-1.92.19-3.84.24-5.75.25S179.76,229.56,177.84,229.37Z" style="fill:#263238"></path><path d="M204.41,229.37c1.91-.2,3.83-.24,5.75-.25s3.83,0,5.75.25c-1.92.19-3.83.24-5.75.25S206.32,229.56,204.41,229.37Z" style="fill:#263238"></path><path d="M231,229.37c1.92-.2,3.83-.24,5.75-.25s3.84,0,5.75.25c-1.91.19-3.83.24-5.75.25S232.89,229.56,231,229.37Z" style="fill:#263238"></path><path d="M257.53,229.37c1.92-.2,3.84-.24,5.76-.25s3.83,0,5.75.25c-1.92.19-3.84.24-5.75.25S259.45,229.56,257.53,229.37Z" style="fill:#263238"></path><path d="M284.1,229.37c1.91-.2,3.83-.24,5.75-.25s3.83,0,5.75.25c-1.92.19-3.83.24-5.75.25S286,229.56,284.1,229.37Z" style="fill:#263238"></path><path d="M310.66,229.37c1.92-.2,3.83-.24,5.75-.25s3.84,0,5.75.25c-1.91.19-3.83.24-5.75.25S312.58,229.56,310.66,229.37Z" style="fill:#263238"></path><path d="M173.69,157.87c3.28-.2,6.57-.3,9.85-.38s6.57-.1,9.86-.12,6.57,0,9.85.12l4.93.14c1.64.08,3.29.13,4.93.24-1.64.12-3.29.17-4.93.25l-4.93.14c-3.28.09-6.57.1-9.85.11s-6.57,0-9.86-.11S177,158.08,173.69,157.87Z" style="fill:#263238"></path><path d="M173.69,162.61c6.13-.2,12.27-.3,18.41-.38s12.27-.07,18.41-.11,12.27,0,18.41.11l9.2.14c3.07.08,6.14.13,9.2.24-3.06.12-6.13.17-9.2.25l-9.2.14c-6.14.08-12.28.07-18.41.11s-12.28,0-18.41-.11S179.82,162.82,173.69,162.61Z" style="fill:#dbdbdb"></path><path d="M173.69,166.6c4.57-.2,9.15-.3,13.72-.38s9.15-.07,13.73-.11,9.15,0,13.73.11l6.86.14c2.29.08,4.57.13,6.86.24-2.29.12-4.57.17-6.86.25l-6.86.14c-4.58.08-9.15.08-13.73.11s-9.15,0-13.73-.11S178.26,166.81,173.69,166.6Z" style="fill:#dbdbdb"></path><path d="M173.69,170.6a8.49,8.49,0,0,1,3,0,9.19,9.19,0,0,1-3,0Z" style="fill:#dbdbdb"></path><path d="M173.69,174.59c5.43-.21,10.86-.31,16.29-.39s10.87-.07,16.3-.11,10.86,0,16.29.11l8.15.14c2.72.08,5.43.13,8.15.25-2.72.11-5.43.16-8.15.24l-8.15.14c-5.43.08-10.86.08-16.29.12s-10.87,0-16.3-.12S179.12,174.79,173.69,174.59Z" style="fill:#dbdbdb"></path><path d="M243.13,110.65a.12.12,0,0,1,.12-.12h1a1,1,0,1,1,0,2h-.86v1.38a.12.12,0,0,1-.13.12.12.12,0,0,1-.12-.12Zm1.11,1.64a.77.77,0,0,0,.76-.76.76.76,0,0,0-.76-.76h-.86v1.52Z"></path><path d="M247,111.58a1.23,1.23,0,1,1-1.16,1.22A1.19,1.19,0,0,1,247,111.58Zm0,2.21a1,1,0,1,0-.92-1A1,1,0,0,0,247,113.79Z"></path><path d="M248.87,113.52a.12.12,0,0,1,.17,0,1.28,1.28,0,0,0,.75.29.75.75,0,0,0,.47-.15.34.34,0,0,0,0-.6,1.24,1.24,0,0,0-.52-.18h0a1.42,1.42,0,0,1-.56-.19.52.52,0,0,1-.26-.44.63.63,0,0,1,.26-.48,1.07,1.07,0,0,1,.6-.16,1.3,1.3,0,0,1,.73.26.13.13,0,0,1,0,.17.13.13,0,0,1-.17,0,1.08,1.08,0,0,0-.6-.25.74.74,0,0,0-.46.14.37.37,0,0,0-.16.28.33.33,0,0,0,.14.25,1.44,1.44,0,0,0,.5.17h0a1.52,1.52,0,0,1,.6.2.59.59,0,0,1,.27.5.6.6,0,0,1-.28.49,1,1,0,0,1-.61.2,1.46,1.46,0,0,1-.9-.35A.11.11,0,0,1,248.87,113.52Z"></path><path d="M252.43,111.7a.13.13,0,0,1-.12.12H252v1.78a.18.18,0,0,0,.18.18.14.14,0,0,1,.12.13.13.13,0,0,1-.12.12.41.41,0,0,1-.43-.43v-1.78h-.31c-.12,0-.12-.06-.12-.12s0-.12.12-.12h.31v-.91a.13.13,0,0,1,.12-.12.14.14,0,0,1,.13.12v.91h.31A.13.13,0,0,1,252.43,111.7Z"></path><path d="M253.41,113.52a.12.12,0,0,1,.17,0,1.28,1.28,0,0,0,.75.29.72.72,0,0,0,.46-.15.34.34,0,0,0,0-.6,1.19,1.19,0,0,0-.52-.18h0a1.37,1.37,0,0,1-.55-.19.51.51,0,0,1-.27-.44.61.61,0,0,1,.27-.48,1,1,0,0,1,.6-.16,1.33,1.33,0,0,1,.73.26.13.13,0,0,1,0,.17.12.12,0,0,1-.16,0,1.08,1.08,0,0,0-.6-.25.8.8,0,0,0-.47.14.36.36,0,0,0-.15.28.3.3,0,0,0,.14.25,1.37,1.37,0,0,0,.5.17h0a1.53,1.53,0,0,1,.59.2.6.6,0,0,1,.28.5.63.63,0,0,1-.28.49,1,1,0,0,1-.61.2,1.46,1.46,0,0,1-.91-.35A.11.11,0,0,1,253.41,113.52Z"></path><path d="M246.1,105a1.47,1.47,0,0,1,0,2.1,1.47,1.47,0,0,1-2.1,0,.34.34,0,0,1,.48-.48.78.78,0,0,0,.57.24.81.81,0,0,0,.57-1.38.82.82,0,0,0-.57-.24.29.29,0,0,1-.24-.11h0a.34.34,0,0,1,0-.48l.61-.63h-1a.34.34,0,1,1,0-.68h1.77a.34.34,0,0,1,.34.34.42.42,0,0,1,0,.16l-.06.09-.76.78A1.22,1.22,0,0,1,246.1,105Z"></path><path d="M250.7,106.41a.33.33,0,0,1-.34.33h-.06v.46a.33.33,0,0,1-.33.33.33.33,0,0,1-.33-.33v-.46h-1.89a.31.31,0,0,1-.2-.07.31.31,0,0,1-.05-.46l2.21-2.76h0s0,0,0,0h0l0,0h0s0,0,0,0h.25s0,0,0,0l0,0h0l0,0s0,0,0,0,0,0,0,0,0,0,0,0,0,0,0,0,0,0,0,0,0,0,0,0v2.47h.06A.34.34,0,0,1,250.7,106.41Zm-1.06-1.81-1.19,1.48h1.19Z"></path><path d="M253.75,105a1.5,1.5,0,0,1,0,2.1,1.51,1.51,0,0,1-1.06.44,1.49,1.49,0,0,1-1.05-.44.34.34,0,0,1,.48-.48.8.8,0,0,0,.57.24.84.84,0,0,0,.58-.24.8.8,0,0,0,0-1.14.84.84,0,0,0-.57-.24.3.3,0,0,1-.25-.11h0a.35.35,0,0,1,0-.48L253,104h-1a.34.34,0,0,1,0-.68h1.77a.34.34,0,0,1,.34.34.29.29,0,0,1,0,.16.47.47,0,0,1-.06.09l-.75.78A1.32,1.32,0,0,1,253.75,105Z"></path><path d="M274.61,103.66v3.54a.34.34,0,0,1-.34.33.33.33,0,0,1-.33-.33v-3l-.24.14a.32.32,0,0,1-.16,0,.34.34,0,0,1-.29-.16.33.33,0,0,1,.11-.45l.74-.44h0s0,0,0,0h.26s0,0,0,0l0,0s0,0,0,0,0,0,0,0,0,0,0,0l0,0h0s0,0,0,0,0,0,0,0a0,0,0,0,1,0,0s0,0,0,0,0,0,0,0Z"></path><path d="M275.38,104.78a1.45,1.45,0,0,1,2.9-.15s0,0,0,0,0,.23,0,.35a3.44,3.44,0,0,1-.21,1.22,2.12,2.12,0,0,1-.77,1,1.71,1.71,0,0,1-.9.28.33.33,0,0,1-.35-.32.33.33,0,0,1,.32-.34,1.23,1.23,0,0,0,.57-.17,1.17,1.17,0,0,0,.37-.42.8.8,0,0,0,.08-.16,1.35,1.35,0,0,1-.57.12A1.45,1.45,0,0,1,275.38,104.78Zm.66,0a.8.8,0,0,0,.8.79.79.79,0,0,0,.78-.79.77.77,0,0,0-.78-.78A.79.79,0,0,0,276,104.78Z"></path><path d="M282.43,106.41a.33.33,0,0,1-.33.33H282v.46a.33.33,0,0,1-.33.33.33.33,0,0,1-.33-.33v-.46h-1.89a.33.33,0,0,1-.21-.07.32.32,0,0,1,0-.46l2.22-2.76a0,0,0,0,0,0,0l0,0h0l0,0h0s0,0,0,0h0s0,0,0,0h.2s0,0,0,0l0,0h0l0,0s0,0,0,0l0,0a0,0,0,0,0,0,0s0,0,0,0,0,0,0,0v0s0,0,0,0v2.44h.06A.33.33,0,0,1,282.43,106.41Zm-1.05-1.81-1.2,1.48h1.2Z"></path><path d="M285.48,105a1.47,1.47,0,0,1,0,2.1,1.47,1.47,0,0,1-2.1,0,.34.34,0,0,1,.48-.48.78.78,0,0,0,.57.24.81.81,0,0,0,.57-1.38.82.82,0,0,0-.57-.24.29.29,0,0,1-.24-.11h0a.34.34,0,0,1,0-.48l.61-.63h-1a.34.34,0,1,1,0-.68h1.77a.34.34,0,0,1,.34.34.42.42,0,0,1,0,.16l-.06.09-.76.78A1.22,1.22,0,0,1,285.48,105Z"></path><path d="M313.64,106.41a.33.33,0,0,1-.33.33h-.06v.46a.33.33,0,0,1-.33.33.33.33,0,0,1-.33-.33v-.46H310.7a.31.31,0,0,1-.21-.07.32.32,0,0,1-.05-.46l2.22-2.76a0,0,0,0,1,0,0l0,0h0s0,0,0,0h0s0,0,0,0h0s0,0,0,0h.19l0,0s0,0,0,0h0l0,0s0,0,0,0l0,0s0,0,0,0,0,0,0,0v0s0,0,0,0,0,0,0,0v2.44h.06A.33.33,0,0,1,313.64,106.41Zm-1.05-1.81-1.2,1.48h1.2Z"></path><path d="M316.63,105a1.47,1.47,0,0,1,.44,1.05,1.5,1.5,0,0,1-1.49,1.49h0a1.46,1.46,0,0,1-1-.44.33.33,0,0,1,0-.48.33.33,0,0,1,.47,0,.82.82,0,0,0,1.39-.57.78.78,0,0,0-.24-.57.76.76,0,0,0-.57-.24.79.79,0,0,0-.58.24.33.33,0,0,1-.47,0l-.07-.08s0,0,0,0a0,0,0,0,0,0,0v0h0a.2.2,0,0,1,0-.11l.18-1.55a.36.36,0,0,1,.15-.24h0a.29.29,0,0,1,.16,0h1.77a.34.34,0,0,1,.34.34.34.34,0,0,1-.34.34h-1.48l-.07.59a1.83,1.83,0,0,1,.4,0A1.44,1.44,0,0,1,316.63,105Z"></path><path d="M320.55,103.79l-1.5,3.54a.3.3,0,0,1-.3.2l-.13,0a.35.35,0,0,1-.18-.43l1.3-3.07h-1.55a.34.34,0,0,1-.33-.34.33.33,0,0,1,.33-.33h2.12a.56.56,0,0,1,.12,0l0,0s0,0,0,0l0,0,0,0a.1.1,0,0,0,0,0l0,0a.1.1,0,0,0,0,0s0,0,0,0a.33.33,0,0,1,0,.14A.14.14,0,0,1,320.55,103.79Z"></path><path d="M268.85,110.65a.11.11,0,0,1,.11-.12h1.81a.12.12,0,1,1,0,.24h-1.68v1.39h1.47a.12.12,0,1,1,0,.24h-1.47v1.51a.12.12,0,0,1-.24,0Z"></path><path d="M272.5,111.58a1.23,1.23,0,1,1-1.16,1.22A1.2,1.2,0,0,1,272.5,111.58Zm0,2.21a1,1,0,1,0-.92-1A1,1,0,0,0,272.5,113.79Z"></path><path d="M274.61,110.65a.12.12,0,0,1,.12-.12.12.12,0,0,1,.13.12v3.26a.12.12,0,0,1-.13.12.12.12,0,0,1-.12-.12Z"></path><path d="M275.86,110.65a.12.12,0,1,1,.24,0v3.26a.12.12,0,0,1-.24,0Z"></path><path d="M278.11,111.58A1.23,1.23,0,1,1,277,112.8,1.19,1.19,0,0,1,278.11,111.58Zm0,2.21a1,1,0,1,0-.92-1A1,1,0,0,0,278.11,113.79Z"></path><path d="M280.81,114a.1.1,0,0,1-.05-.06l-.92-2.19a.12.12,0,0,1,.06-.15.12.12,0,0,1,.16.06l.81,1.93.57-1.34a.13.13,0,0,1,.11-.08.13.13,0,0,1,.12.08l.57,1.34.81-1.93a.11.11,0,0,1,.15-.06.12.12,0,0,1,.07.15l-.92,2.19,0,.06-.06,0h0a.11.11,0,0,1-.09-.08h0l-.57-1.36L281,114h0a.11.11,0,0,1-.1.08h-.07Z"></path><path d="M283.82,112.81a1.19,1.19,0,0,1,2.37-.09h0v0a.11.11,0,0,1-.12.11h-2a1,1,0,0,0,.95.94.9.9,0,0,0,.79-.45.12.12,0,0,1,.16,0,.12.12,0,0,1,0,.17,1.15,1.15,0,0,1-1,.56A1.21,1.21,0,0,1,283.82,112.81Zm.26-.2h1.85a.94.94,0,0,0-.92-.79A1,1,0,0,0,284.08,112.61Z"></path><path d="M286.94,111.7a.12.12,0,0,1,.12-.12.12.12,0,0,1,.12.12v.54l0-.06a1.19,1.19,0,0,1,1-.6.12.12,0,1,1,0,.24.88.88,0,0,0-.71.4,2.15,2.15,0,0,0-.29.57.08.08,0,0,0,0,0v1.08a.12.12,0,0,1-.12.12.12.12,0,0,1-.12-.12Z"></path><path d="M289,113.52a.12.12,0,0,1,.17,0,1.28,1.28,0,0,0,.75.29.75.75,0,0,0,.47-.15.34.34,0,0,0,0-.6,1.24,1.24,0,0,0-.52-.18h0a1.42,1.42,0,0,1-.56-.19.52.52,0,0,1-.26-.44.63.63,0,0,1,.26-.48,1.07,1.07,0,0,1,.6-.16,1.3,1.3,0,0,1,.73.26.13.13,0,0,1,0,.17.13.13,0,0,1-.17,0,1.08,1.08,0,0,0-.6-.25.74.74,0,0,0-.46.14.37.37,0,0,0-.16.28.33.33,0,0,0,.14.25,1.44,1.44,0,0,0,.5.17h0a1.52,1.52,0,0,1,.6.2.59.59,0,0,1,.27.5.6.6,0,0,1-.28.49,1,1,0,0,1-.61.2,1.46,1.46,0,0,1-.9-.35A.11.11,0,0,1,289,113.52Z"></path><path d="M304.56,110.65a.11.11,0,0,1,.11-.12h1.82a.12.12,0,1,1,0,.24H304.8v1.39h1.48a.12.12,0,0,1,0,.24H304.8v1.51a.12.12,0,0,1-.12.12.12.12,0,0,1-.12-.12Z"></path><path d="M308.21,111.58a1.23,1.23,0,1,1-1.16,1.22A1.19,1.19,0,0,1,308.21,111.58Zm0,2.21a1,1,0,1,0-.92-1A1,1,0,0,0,308.21,113.79Z"></path><path d="M310.32,110.65a.12.12,0,0,1,.13-.12.12.12,0,0,1,.12.12v3.26a.12.12,0,0,1-.12.12.12.12,0,0,1-.13-.12Z"></path><path d="M311.57,110.65a.12.12,0,0,1,.12-.12.12.12,0,0,1,.13.12v3.26a.12.12,0,0,1-.13.12.12.12,0,0,1-.12-.12Z"></path><path d="M313.83,111.58a1.23,1.23,0,1,1-1.16,1.22A1.2,1.2,0,0,1,313.83,111.58Zm0,2.21a1,1,0,1,0-.92-1A1,1,0,0,0,313.83,113.79Z"></path><path d="M316.53,114s0,0,0-.06l-.93-2.19a.12.12,0,0,1,.06-.15.12.12,0,0,1,.16.06l.82,1.93.56-1.34a.13.13,0,0,1,.24,0l.56,1.34.81-1.93a.12.12,0,0,1,.16-.06.11.11,0,0,1,.06.15l-.91,2.19L318,114l-.06,0h0a.12.12,0,0,1-.1-.08h0l-.57-1.36L316.7,114h0a.13.13,0,0,1-.11.08h-.06Z"></path><path d="M319.71,110.9a.12.12,0,0,1,.12-.12.12.12,0,0,1,.12.12V111a.13.13,0,0,1-.12.13.12.12,0,0,1-.12-.13Zm0,.8a.12.12,0,0,1,.12-.12.12.12,0,0,1,.12.12v2.21a.12.12,0,0,1-.12.12.12.12,0,0,1-.12-.12Z"></path><path d="M322.86,112.58a.76.76,0,0,0-.76-.76.77.77,0,0,0-.76.76v1.35s0,0,0,.06a.12.12,0,0,1-.09,0h0a.13.13,0,0,1-.08-.06v0h0V111.7a.12.12,0,0,1,.12-.12.12.12,0,0,1,.11.12v.24a1,1,0,0,1,.76-.36,1,1,0,0,1,1,1v1.33a.12.12,0,0,1-.12.12.12.12,0,0,1-.12-.12Z"></path><path d="M326.31,113.83a1.15,1.15,0,0,1-1.15,1.16,1.32,1.32,0,0,1-.52-.12.13.13,0,0,1-.05-.16.11.11,0,0,1,.16,0,1,1,0,0,0,.41.09.91.91,0,0,0,.91-.92v-.3a1.1,1.1,0,0,1-.91.49,1.22,1.22,0,0,1,0-2.44,1.11,1.11,0,0,1,.91.48v-.36a.12.12,0,0,1,.13-.12.11.11,0,0,1,.11.12Zm-.24-1a.92.92,0,1,0-1.83,0,.92.92,0,1,0,1.83,0Z"></path></g><g id="freepik--Lines--inject-45"><path d="M210.06,181.34a14.23,14.23,0,0,1-.38-3.42,13.77,13.77,0,0,1,.38-3.43,13.76,13.76,0,0,1,.37,3.43A14.22,14.22,0,0,1,210.06,181.34Z" style="fill:#263238"></path><path d="M201.85,182.76A19.22,19.22,0,0,1,199,180a18.76,18.76,0,0,1-2.33-3.22,19.14,19.14,0,0,1,2.89,2.72A18.29,18.29,0,0,1,201.85,182.76Z" style="fill:#263238"></path><path d="M195.82,186.67a29.48,29.48,0,0,1-4.67-1.36,28.32,28.32,0,0,1-4.39-2.07,31.22,31.22,0,0,1,9.06,3.43Z" style="fill:#263238"></path><path d="M193.58,192a32.86,32.86,0,0,1-5.23.37,31.73,31.73,0,0,1-5.23-.37,31.74,31.74,0,0,1,5.23-.38A32.87,32.87,0,0,1,193.58,192Z" style="fill:#263238"></path><path d="M195.74,197.4a27.13,27.13,0,0,1-4.4,2.07,27.4,27.4,0,0,1-4.66,1.36,27.08,27.08,0,0,1,4.4-2.06A28.38,28.38,0,0,1,195.74,197.4Z" style="fill:#263238"></path><path d="M201.72,201.35a21.08,21.08,0,0,1-5.24,5.94,18.29,18.29,0,0,1,2.34-3.22A18.75,18.75,0,0,1,201.72,201.35Z" style="fill:#263238"></path><path d="M209.91,202.82a16,16,0,0,1,0,6.85,15.63,15.63,0,0,1,0-6.85Z" style="fill:#263238"></path><path d="M218.12,201.4a19.14,19.14,0,0,1,2.89,2.72,18.29,18.29,0,0,1,2.34,3.22,20.84,20.84,0,0,1-5.23-5.94Z" style="fill:#263238"></path><path d="M224.15,197.49a28.35,28.35,0,0,1,4.66,1.36,27.53,27.53,0,0,1,4.4,2.07,32,32,0,0,1-9.06-3.43Z" style="fill:#263238"></path><path d="M226.38,192.13a33,33,0,0,1,5.24-.38,31.82,31.82,0,0,1,5.23.38,31.81,31.81,0,0,1-5.23.37A33,33,0,0,1,226.38,192.13Z" style="fill:#263238"></path><path d="M224.22,186.75a28.8,28.8,0,0,1,4.4-2.06,27.51,27.51,0,0,1,4.67-1.36,27.88,27.88,0,0,1-4.4,2.06A27.51,27.51,0,0,1,224.22,186.75Z" style="fill:#263238"></path><path d="M218.25,182.81a18.76,18.76,0,0,1,2.33-3.22,19.22,19.22,0,0,1,2.9-2.72,18.76,18.76,0,0,1-2.33,3.22A19.22,19.22,0,0,1,218.25,182.81Z" style="fill:#263238"></path></g><g id="freepik--speech-bubble--inject-45"><path d="M83.4,255.45a25.05,25.05,0,0,0,41.87,15.86l12.54,1.84-6.27-10.84a25.06,25.06,0,1,0-48.14-6.86Z" style="fill:#fff"></path><path d="M90.9,234.76A25.31,25.31,0,0,1,132,262.49l0-.43,6.23,10.86.46.81-.91-.14-12.52-1.93.3-.09a25.27,25.27,0,0,1-12.4,6.12,21.39,21.39,0,0,1-3.47.36,23.79,23.79,0,0,1-3.48-.06,25.19,25.19,0,0,1-6.75-1.61,24.76,24.76,0,0,1-6-3.37,28.15,28.15,0,0,1-2.64-2.24,26.69,26.69,0,0,1-2.27-2.61,25.2,25.2,0,0,1,2.44-33.4ZM88.53,268.1a26.73,26.73,0,0,0,2.28,2.59,28,28,0,0,0,2.65,2.21,23.52,23.52,0,0,0,6,3.26,24.88,24.88,0,0,0,6.7,1.47,24.54,24.54,0,0,0,3.43,0,21.64,21.64,0,0,0,3.4-.42A24.63,24.63,0,0,0,125,271l.12-.11.17,0,12.55,1.76-.45.66-6.31-10.82-.12-.2.1-.23a25.14,25.14,0,0,0,1.76-10.92,24.75,24.75,0,0,0-3.18-10.6,25.84,25.84,0,0,0-7.5-8.18,24.67,24.67,0,0,0-10.35-4.09,24.93,24.93,0,0,0-11.15.84A24.77,24.77,0,0,0,88.53,268.1Z" style="fill:#263238"></path><path d="M97.7,257.57a32.84,32.84,0,0,0,10.53,9.14,32.87,32.87,0,0,0,10.52-9.14c3.71-4.9,3.53-12.58-1.78-14.24-5.86-1.84-8.74,7-8.74,7s-2.93-8.89-8.75-7C94.19,245.05,94,252.67,97.7,257.57Z" style="fill:#4D27FF"></path></g></svg>